# 3ds Max Wavefront OBJ Exporter v0.97b - (c)2007 guruware
# File Created: 05.09.2015 13:00:41

#
# object Box002
#

v  -0.2862 31.4933 17.4991
v  -0.2862 31.4933 18.2452
v  -23.1437 31.4933 18.2452
v  -23.1437 31.4933 17.4991
v  -0.2862 39.3465 17.4991
v  -23.1437 39.3465 17.4991
v  -23.1437 39.3465 18.2452
v  -0.2862 39.3465 18.2452
v  -22.3080 32.3291 -1.3216
v  -22.3080 38.5108 -1.3216
v  -1.1219 38.5108 -1.3216
v  -1.1219 32.3291 -1.3216
v  -22.3080 38.5108 17.4991
v  -22.3080 32.3291 17.4991
v  -1.1219 32.3291 17.4991
v  -21.6427 32.8734 -0.9117
v  -21.6427 32.8734 17.4991
v  -1.7872 32.8734 17.4991
v  -1.7872 32.8734 -0.9117
v  -1.1219 38.5108 17.4991
v  -1.7872 38.5108 17.4991
v  -21.6427 38.5108 -0.9117
v  -1.7872 38.5108 -0.9117
v  -21.6427 38.5108 17.4991
v  23.5192 0.0000 10.0796
v  -23.5192 0.0000 10.0796
v  -23.5192 0.0000 -10.0796
v  23.5192 0.0000 -10.0796
v  23.5192 39.7895 -10.0796
v  23.5192 39.7895 10.0796
v  -23.5192 39.7895 -10.0796
v  -23.5192 39.7895 10.0796
v  -23.9693 40.8996 10.9263
v  -23.9693 39.7895 10.9263
v  23.9693 39.7895 10.9263
v  23.9693 40.8996 10.9263
v  24.3658 40.8996 10.5298
v  24.3658 39.7895 10.5298
v  24.3658 39.7895 -10.5298
v  24.3658 40.8996 -10.5298
v  23.9693 40.8996 -10.9263
v  23.9693 39.7895 -10.9263
v  -23.9693 39.7895 -10.9263
v  -23.9693 40.8996 -10.9263
v  -24.3658 40.8996 -10.5298
v  -24.3658 39.7895 -10.5298
v  -24.3658 39.7895 10.5298
v  -24.3658 40.8996 10.5298
v  -22.5663 39.1465 -9.1783
v  -22.5663 2.5290 -9.1783
v  -0.9055 2.5290 -9.1783
v  -0.9055 39.1465 -9.1783
v  -0.9055 2.5290 10.0796
v  -22.5663 2.5290 10.0796
v  -22.5663 39.1465 10.0796
v  -0.9055 39.1465 10.0796
v  23.9693 41.2960 -10.5298
v  -23.9693 41.2960 -10.5298
v  -23.9693 41.2960 10.5298
v  23.9693 41.2960 10.5298
v  -22.5728 31.1327 9.7232
v  -3.4638 31.1325 19.6938
v  -3.4640 2.5134 19.6937
v  -22.5730 2.5136 9.7231
v  -3.8980 2.5134 20.5255
v  -3.8978 31.1325 20.5256
v  -23.0068 31.1327 10.5550
v  -23.0070 2.5136 10.5549
v  -12.5152 27.9100 15.9734
v  -12.9516 27.4685 15.7466
v  -12.1622 27.4685 18.2130
v  -11.7963 27.9100 17.9054
v  -11.7963 27.0268 17.9054
v  -12.5152 27.0268 15.9734
v  -8.8058 27.4685 19.9568
v  -8.7646 27.9100 19.4807
v  -8.7646 27.0268 19.4807
v  -6.7704 27.9100 18.9583
v  -6.3340 27.4685 19.1851
v  -6.7704 27.0268 18.9583
v  -15.6144 36.5495 18.1957
v  -16.1062 36.1079 18.1957
v  -14.2685 36.1079 20.0203
v  -14.0856 36.5495 19.5787
v  -14.0856 35.6664 19.5787
v  -15.6144 35.6664 18.1957
v  -10.4862 36.1079 20.0203
v  -10.6691 36.5495 19.5787
v  -10.6691 35.6664 19.5787
v  -9.1404 36.5495 18.1957
v  -8.6486 36.1079 18.1957
v  -9.1404 35.6664 18.1957
v  5.1515 25.8447 10.0490
v  4.6598 25.4031 10.0490
v  6.4973 25.4031 11.8736
v  6.6803 25.8447 11.4320
v  6.6803 24.9616 11.4320
v  5.1515 24.9616 10.0490
v  10.2797 25.4031 11.8736
v  10.0968 25.8447 11.4320
v  10.0968 24.9616 11.4320
v  11.6255 25.8447 10.0490
v  12.1173 25.4031 10.0490
v  11.6255 24.9616 10.0490
v  8.2003 35.4628 10.0490
v  7.7084 35.0212 10.0490
v  9.5460 35.0212 11.8736
v  9.7289 35.4628 11.4320
v  9.7289 34.5796 11.4320
v  8.2003 34.5796 10.0490
v  13.3284 35.0212 11.8736
v  13.1455 35.4628 11.4320
v  13.1455 34.5796 11.4320
v  14.6742 35.4628 10.0490
v  15.1660 35.0212 10.0490
v  14.6742 34.5796 10.0490
# 116 vertices

vn 0.0000 -1.0000 -0.0000
vn 0.0000 1.0000 -0.0000
vn 1.0000 0.0000 -0.0000
vn 0.0000 0.0000 -1.0000
vn -1.0000 0.0000 -0.0000
vn 0.0000 0.0000 1.0000
vn 0.4626 0.0000 -0.8866
vn -0.4626 0.0000 0.8866
vn 0.8866 0.0000 0.4626
vn -0.8866 0.0000 -0.4626
vn -0.7508 0.5986 0.2794
vn -0.7329 0.6271 0.2639
vn -0.6730 0.7076 0.2154
vn -0.6833 0.6951 0.2235
vn 0.9372 0.0000 -0.3487
vn -0.6749 -0.6965 0.2437
vn -0.7493 -0.6173 0.2398
vn -0.7381 -0.6303 0.2406
vn -0.6563 -0.7139 0.2442
vn -0.3260 0.7071 0.6275
vn 0.4611 0.0000 -0.8874
vn -0.3260 -0.7071 0.6275
vn 0.2274 0.6303 0.7423
vn 0.1775 0.7139 0.6774
vn 0.1886 0.6965 0.6924
vn 0.2345 0.6173 0.7509
vn 0.2106 -0.7076 0.6745
vn 0.2099 -0.6951 0.6876
vn 0.2030 -0.5986 0.7749
vn 0.2053 -0.6271 0.7514
vn -0.2534 0.0000 -0.9674
vn -0.5374 0.5986 0.5941
vn -0.5286 0.6271 0.5721
vn -0.4979 0.7076 0.5014
vn -0.5033 0.6951 0.5134
vn 0.6709 0.0000 -0.7416
vn -0.4865 -0.6965 0.5274
vn -0.5543 -0.6173 0.5583
vn -0.5440 -0.6303 0.5538
vn -0.4698 -0.7139 0.5193
vn 0.0000 0.7071 0.7071
vn 0.0000 -0.7071 0.7071
vn 0.5440 0.6303 0.5538
vn 0.4698 0.7139 0.5193
vn 0.4865 0.6965 0.5274
vn 0.5543 0.6173 0.5583
vn 0.4979 -0.7076 0.5014
vn 0.5033 -0.6951 0.5134
vn 0.5374 -0.5986 0.5941
vn 0.5286 -0.6271 0.5721
vn -0.6709 0.0000 -0.7416
vn 0.4978 -0.7076 0.5014
vn 0.5774 0.5774 0.5774
vn -0.5774 0.5774 0.5774
vn -0.5774 0.5774 -0.5774
vn 0.5774 0.5774 -0.5774
vn -0.7071 0.0000 0.7071
vn 0.7071 0.0000 0.7071
vn 0.7071 0.0000 -0.7071
vn -0.7071 0.0000 -0.7071
vn -0.7071 0.7071 -0.0000
vn 0.7071 0.7071 -0.0000
vn 0.0000 0.7071 -0.7071
# 63 vertex normals

vt 0.7448 0.9021 0.0000
vt 0.7448 0.9086 0.0000
vt 0.5474 0.9086 0.0000
vt 0.5474 0.9021 0.0000
vt 0.7448 0.9828 0.0000
vt 0.5474 0.9828 0.0000
vt 0.5474 0.9764 0.0000
vt 0.7448 0.9764 0.0000
vt 0.7512 0.9764 0.0000
vt 0.7512 0.9086 0.0000
vt 0.3100 0.0814 0.0000
vt 0.3100 0.0123 0.0000
vt 0.0730 0.0123 0.0000
vt 0.0730 0.0814 0.0000
vt 0.0098 0.2857 0.0000
vt 0.0098 0.0752 0.0000
vt 0.0790 0.0752 0.0000
vt 0.0790 0.2857 0.0000
vt 0.0791 0.0754 0.0000
vt 0.0791 0.2859 0.0000
vt 0.3161 0.2859 0.0000
vt 0.3161 0.0754 0.0000
vt 0.3026 0.0799 0.0000
vt 0.3026 0.2859 0.0000
vt 0.0805 0.2859 0.0000
vt 0.0805 0.0799 0.0000
vt 0.0099 0.0754 0.0000
vt 0.0099 0.2859 0.0000
vt 0.5410 0.9764 0.0000
vt 0.5410 0.9086 0.0000
vt 0.7376 0.9222 0.0000
vt 0.7448 0.9150 0.0000
vt 0.5474 0.9150 0.0000
vt 0.5546 0.9222 0.0000
vt 0.7376 0.9756 0.0000
vt 0.7318 0.9756 0.0000
vt 0.5546 0.9756 0.0000
vt 0.3026 0.0169 0.0000
vt 0.0805 0.0169 0.0000
vt 0.0173 0.2857 0.0000
vt 0.0173 0.0798 0.0000
vt 0.0174 0.0799 0.0000
vt 0.0174 0.2859 0.0000
vt 0.0803 0.2857 0.0000
vt 0.0803 0.0798 0.0000
vt 0.7318 0.9269 0.0000
vt 0.5604 0.9269 0.0000
vt 0.5604 0.9756 0.0000
vt 0.9926 0.6000 0.0000
vt 0.5284 0.6000 0.0000
vt 0.5284 0.4010 0.0000
vt 0.9926 0.4010 0.0000
vt 0.5247 0.0108 0.0000
vt 0.5247 0.4034 0.0000
vt 0.3257 0.4034 0.0000
vt 0.3257 0.0108 0.0000
vt 0.9956 0.3998 0.0000
vt 0.5314 0.3998 0.0000
vt 0.5314 0.0072 0.0000
vt 0.9956 0.0072 0.0000
vt 0.3265 0.0098 0.0000
vt 0.3265 0.4024 0.0000
vt 0.5254 0.4024 0.0000
vt 0.5254 0.0098 0.0000
vt 0.5026 0.4322 0.0000
vt 0.5134 0.4305 0.0000
vt 0.5134 0.9695 0.0000
vt 0.5026 0.9677 0.0000
vt 0.4973 0.9731 0.0000
vt 0.4992 0.9836 0.0000
vt 0.2595 0.9836 0.0000
vt 0.2615 0.9731 0.0000
vt 0.2562 0.9677 0.0000
vt 0.2453 0.9695 0.0000
vt 0.2453 0.4305 0.0000
vt 0.2562 0.4322 0.0000
vt 0.2615 0.4269 0.0000
vt 0.2596 0.4163 0.0000
vt 0.4989 0.4162 0.0000
vt 0.4973 0.4269 0.0000
vt 0.5223 0.9625 0.0000
vt 0.5223 0.4375 0.0000
vt 0.2670 0.9931 0.0000
vt 0.4918 0.9931 0.0000
vt 0.2364 0.4375 0.0000
vt 0.2364 0.9625 0.0000
vt 0.4914 0.4068 0.0000
vt 0.2671 0.4068 0.0000
vt 0.0120 0.8856 0.0000
vt 0.0120 0.6889 0.0000
vt 0.1284 0.6889 0.0000
vt 0.1284 0.8856 0.0000
vt 0.7516 0.6249 0.0000
vt 0.5378 0.6249 0.0000
vt 0.9926 0.9926 0.0000
vt 0.5284 0.9926 0.0000
vt 0.5378 0.9863 0.0000
vt 0.7516 0.9863 0.0000
vt 0.2620 0.9673 0.0000
vt 0.2620 0.4327 0.0000
vt 0.4968 0.4327 0.0000
vt 0.4968 0.9673 0.0000
vt 0.0120 0.9891 0.0000
vt 0.1284 0.9891 0.0000
vt 0.2326 0.6880 0.0000
vt 0.1291 0.6880 0.0000
vt 0.1291 0.8847 0.0000
vt 0.2326 0.8847 0.0000
vt 0.1284 0.5855 0.0000
vt 0.0120 0.5855 0.0000
vt 0.2318 0.8856 0.0000
vt 0.2318 0.6889 0.0000
vt 0.7415 0.8908 0.0000
vt 0.5486 0.8908 0.0000
vt 0.5486 0.6347 0.0000
vt 0.7415 0.6347 0.0000
vt 0.7413 0.6346 0.0000
vt 0.7413 0.8907 0.0000
vt 0.5484 0.8907 0.0000
vt 0.5484 0.6346 0.0000
vt 0.7413 0.6262 0.0000
vt 0.5484 0.6262 0.0000
vt 0.7497 0.8907 0.0000
vt 0.7497 0.6346 0.0000
vt 0.5484 0.8991 0.0000
vt 0.7413 0.8991 0.0000
vt 0.5400 0.6346 0.0000
vt 0.5400 0.8907 0.0000
vt 0.3255 0.3082 0.0000
vt 0.3254 0.3181 0.0000
vt 0.2924 0.2972 0.0000
vt 0.2998 0.2907 0.0000
vt 0.2829 0.3180 0.0000
vt 0.2897 0.3066 0.0000
vt 0.3164 0.3224 0.0000
vt 0.3096 0.3339 0.0000
vt 0.2897 0.2878 0.0000
vt 0.2355 0.2972 0.0000
vt 0.2382 0.2878 0.0000
vt 0.2382 0.3199 0.0000
vt 0.2382 0.3066 0.0000
vt 0.2897 0.3199 0.0000
vt 0.2024 0.3082 0.0000
vt 0.2281 0.2907 0.0000
vt 0.2025 0.3181 0.0000
vt 0.2115 0.3224 0.0000
vt 0.2450 0.3180 0.0000
vt 0.2183 0.3339 0.0000
vt 0.3246 0.3080 0.0000
vt 0.3245 0.3179 0.0000
vt 0.2916 0.2969 0.0000
vt 0.2989 0.2905 0.0000
vt 0.2820 0.3178 0.0000
vt 0.2888 0.3063 0.0000
vt 0.3155 0.3222 0.0000
vt 0.3088 0.3337 0.0000
vt 0.2888 0.2875 0.0000
vt 0.2346 0.2969 0.0000
vt 0.2374 0.2875 0.0000
vt 0.2374 0.3197 0.0000
vt 0.2374 0.3063 0.0000
vt 0.2888 0.3197 0.0000
vt 0.2016 0.3080 0.0000
vt 0.2273 0.2905 0.0000
vt 0.2017 0.3179 0.0000
vt 0.2107 0.3222 0.0000
vt 0.2442 0.3178 0.0000
vt 0.2175 0.3337 0.0000
vt 0.3227 0.3074 0.0000
vt 0.3226 0.3174 0.0000
vt 0.2897 0.2964 0.0000
vt 0.2971 0.2899 0.0000
vt 0.2802 0.3172 0.0000
vt 0.2870 0.3058 0.0000
vt 0.3137 0.3217 0.0000
vt 0.3069 0.3331 0.0000
vt 0.2870 0.2870 0.0000
vt 0.2327 0.2964 0.0000
vt 0.2355 0.2870 0.0000
vt 0.2355 0.3191 0.0000
vt 0.2355 0.3058 0.0000
vt 0.2870 0.3191 0.0000
vt 0.1997 0.3074 0.0000
vt 0.2254 0.2899 0.0000
vt 0.1998 0.3174 0.0000
vt 0.2088 0.3217 0.0000
vt 0.2423 0.3172 0.0000
vt 0.2156 0.3331 0.0000
vt 0.3224 0.3076 0.0000
vt 0.3223 0.3175 0.0000
vt 0.2894 0.2965 0.0000
vt 0.2967 0.2901 0.0000
vt 0.2798 0.3174 0.0000
vt 0.2866 0.3059 0.0000
vt 0.3133 0.3218 0.0000
vt 0.3065 0.3332 0.0000
vt 0.2866 0.2871 0.0000
vt 0.2324 0.2965 0.0000
vt 0.2351 0.2871 0.0000
vt 0.2351 0.3193 0.0000
vt 0.2351 0.3059 0.0000
vt 0.2866 0.3193 0.0000
vt 0.1994 0.3076 0.0000
vt 0.2250 0.2901 0.0000
vt 0.1995 0.3175 0.0000
vt 0.2084 0.3218 0.0000
vt 0.2419 0.3174 0.0000
vt 0.2152 0.3332 0.0000
vt 0.5168 0.4240 0.0000
vt 0.5188 0.9729 0.0000
vt 0.2399 0.9729 0.0000
vt 0.2399 0.4271 0.0000
# 212 texture coords

g Box002
s 1
f 1/1/1 2/2/1 3/3/1 4/4/1 
f 5/5/2 6/6/2 7/7/2 8/8/2 
s 2
f 5/9/3 8/8/3 2/2/3 1/10/3 
s 1
f 9/11/4 10/12/4 11/13/4 12/14/4 
s 2
f 13/15/5 10/16/5 9/17/5 14/18/5 
s 4
f 12/19/1 15/20/1 14/21/1 9/22/1 
s 1
f 16/23/2 17/24/2 18/25/2 19/26/2 
s 2
f 11/27/3 20/28/3 15/20/3 12/19/3 
f 7/7/5 6/29/5 4/30/5 3/3/5 
s 4
f 2/2/6 8/8/6 7/7/6 3/3/6 
s 8
f 15/31/4 1/32/4 4/33/4 14/34/4 
f 20/35/4 5/5/4 1/32/4 15/31/4 
f 20/35/4 21/36/4 5/5/4 
f 14/34/4 4/33/4 6/6/4 13/37/4 
s 4
f 10/12/2 22/38/2 23/39/2 11/13/2 
f 13/15/2 24/40/2 22/41/2 10/16/2 
f 20/28/2 11/27/2 23/42/2 21/43/2 
s 2
f 22/38/6 16/23/6 19/26/6 23/39/6 
s 16
f 24/40/3 17/44/3 16/45/3 22/41/3 
s 8
f 21/36/4 18/46/4 17/47/4 24/48/4 6/6/4 5/5/4 
s 16
f 23/42/5 19/26/5 18/25/5 21/43/5 
s 1
f 25/49/1 26/50/1 27/51/1 28/52/1 
s 2
f 28/53/3 29/54/3 30/55/3 25/56/3 
s 4
f 31/57/4 29/58/4 28/59/4 27/60/4 
s 2
f 26/61/5 32/62/5 31/63/5 27/64/5 
s 1
f 33/65/6 34/66/6 35/67/6 36/68/6 
s 2
f 37/69/3 38/70/3 39/71/3 40/72/3 
s 1
f 41/73/4 42/74/4 43/75/4 44/76/4 
s 2
f 45/77/5 46/78/5 47/79/5 48/80/5 
s 8
f 30/81/1 35/67/1 34/66/1 32/82/1 
f 29/83/1 39/71/1 38/70/1 30/84/1 
f 31/85/1 43/75/1 42/74/1 29/86/1 
f 32/87/1 47/79/1 46/78/1 31/88/1 
s 1
f 49/89/6 50/90/6 51/91/6 52/92/6 
s 4
f 53/93/6 54/94/6 26/50/6 25/49/6 30/95/6 32/96/6 55/97/6 56/98/6 
f 57/99/2 58/100/2 59/101/2 60/102/2 
f 32/96/6 26/50/6 54/94/6 55/97/6 
s 2
f 55/103/1 49/89/1 52/92/1 56/104/1 
s 8
f 54/105/3 50/106/3 49/107/3 55/108/3 
s 2
f 53/109/2 51/91/2 50/90/2 54/110/2 
s 8
f 56/111/5 52/92/5 51/91/5 53/112/5 
f 24/48/4 13/37/4 6/6/4 
s 1
f 61/113/7 62/114/7 63/115/7 64/116/7 
f 65/117/8 66/118/8 67/119/8 68/120/8 
s 2
f 63/121/1 65/117/1 68/120/1 64/122/1 
s 4
f 62/123/9 66/118/9 65/117/9 63/124/9 
s 2
f 61/125/2 67/119/2 66/118/2 62/126/2 
s 4
f 64/127/10 68/120/10 67/119/10 61/128/10 
s 1
f 69/129/11 70/130/12 71/131/13 72/132/14 
s 2
f 72/133/15 73/134/15 74/135/15 69/136/15 
s 4
f 71/131/16 70/130/17 74/135/18 73/134/19 
s 8
f 72/137/20 71/131/20 75/138/20 76/139/20 
s 16
f 76/140/21 77/141/21 73/134/21 72/142/21 
s 32
f 71/131/22 73/134/22 77/141/22 75/138/22 
s 1
f 78/143/23 76/144/24 75/138/25 79/145/26 
s 2
f 75/138/27 77/141/28 80/146/29 79/145/30 
s 4
f 76/147/31 78/148/31 80/146/31 77/141/31 
s 1
f 81/149/32 82/150/33 83/151/34 84/152/35 
s 2
f 84/153/36 85/154/36 86/155/36 81/156/36 
s 4
f 83/151/37 82/150/38 86/155/39 85/154/40 
s 8
f 84/157/41 83/151/41 87/158/41 88/159/41 
s 16
f 88/160/4 89/161/4 85/154/4 84/162/4 
s 32
f 83/151/42 85/154/42 89/161/42 87/158/42 
s 1
f 90/163/43 88/164/44 87/158/45 91/165/46 
s 2
f 87/158/47 89/161/48 92/166/49 91/165/50 
s 4
f 88/167/51 90/168/51 92/166/51 89/161/51 
s 1
f 93/169/32 94/170/33 95/171/34 96/172/35 
s 2
f 96/173/36 97/174/36 98/175/36 93/176/36 
s 4
f 95/171/37 94/170/38 98/175/39 97/174/40 
s 8
f 96/177/41 95/171/41 99/178/41 100/179/41 
s 16
f 100/180/4 101/181/4 97/174/4 96/182/4 
s 32
f 95/171/42 97/174/42 101/181/42 99/178/42 
s 1
f 102/183/43 100/184/44 99/178/45 103/185/46 
s 2
f 99/178/52 101/181/48 104/186/49 103/185/50 
s 4
f 100/187/51 102/188/51 104/186/51 101/181/51 
s 1
f 105/189/32 106/190/33 107/191/34 108/192/35 
s 2
f 108/193/36 109/194/36 110/195/36 105/196/36 
s 4
f 107/191/37 106/190/38 110/195/39 109/194/40 
s 8
f 108/197/41 107/191/41 111/198/41 112/199/41 
s 16
f 112/200/4 113/201/4 109/194/4 108/202/4 
s 32
f 107/191/42 109/194/42 113/201/42 111/198/42 
s 1
f 114/203/43 112/204/44 111/198/45 115/205/46 
s 2
f 111/198/47 113/201/48 116/206/49 115/205/50 
s 4
f 112/207/51 114/208/51 116/206/51 113/201/51 
s off
f 36/68/53 37/69/53 60/102/53 
f 59/101/54 48/80/54 33/65/54 
f 58/100/55 44/76/55 45/77/55 
f 40/72/56 41/73/56 57/99/56 
f 32/82/1 34/66/1 47/209/1 
f 30/81/1 38/210/1 35/67/1 
f 29/86/1 42/74/1 39/211/1 
f 43/75/1 31/85/1 46/212/1 
f 48/80/57 47/79/57 34/66/57 33/65/57 
f 38/70/58 37/69/58 36/68/58 35/67/58 
f 42/74/59 41/73/59 40/72/59 39/71/59 
f 46/78/60 45/77/60 44/76/60 43/75/60 
f 59/101/61 58/100/61 45/77/61 48/80/61 
f 57/99/62 60/102/62 37/69/62 40/72/62 
f 58/100/63 57/99/63 41/73/63 44/76/63 
f 60/102/41 59/101/41 33/65/41 36/68/41 
# 90 polygons - 10 triangles

